<svg width="13" height="14" viewBox="0 0 13 14" fill="none" xmlns="http://www.w3.org/2000/svg">
<path fill-rule="evenodd" clip-rule="evenodd" d="M2.57554 0.599976C2.78771 0.599976 2.99119 0.684261 3.14122 0.83429C3.29125 0.984319 3.37554 1.1878 3.37554 1.39998V2.19998H4.17554C4.38771 2.19998 4.59119 2.28426 4.74122 2.43429C4.89125 2.58432 4.97554 2.7878 4.97554 2.99998C4.97554 3.21215 4.89125 3.41563 4.74122 3.56566C4.59119 3.71569 4.38771 3.79998 4.17554 3.79998H3.37554V4.59998C3.37554 4.81215 3.29125 5.01563 3.14122 5.16566C2.99119 5.31569 2.78771 5.39998 2.57554 5.39998C2.36336 5.39998 2.15988 5.31569 2.00985 5.16566C1.85982 5.01563 1.77554 4.81215 1.77554 4.59998V3.79998H0.975537C0.763364 3.79998 0.559881 3.71569 0.409852 3.56566C0.259823 3.41563 0.175537 3.21215 0.175537 2.99998C0.175537 2.7878 0.259823 2.58432 0.409852 2.43429C0.559881 2.28426 0.763364 2.19998 0.975537 2.19998H1.77554V1.39998C1.77554 1.1878 1.85982 0.984319 2.00985 0.83429C2.15988 0.684261 2.36336 0.599976 2.57554 0.599976ZM2.57554 8.59998C2.78771 8.59998 2.99119 8.68426 3.14122 8.83429C3.29125 8.98432 3.37554 9.1878 3.37554 9.39997V10.2H4.17554C4.38771 10.2 4.59119 10.2843 4.74122 10.4343C4.89125 10.5843 4.97554 10.7878 4.97554 11C4.97554 11.2121 4.89125 11.4156 4.74122 11.5657C4.59119 11.7157 4.38771 11.8 4.17554 11.8H3.37554V12.6C3.37554 12.8121 3.29125 13.0156 3.14122 13.1657C2.99119 13.3157 2.78771 13.4 2.57554 13.4C2.36336 13.4 2.15988 13.3157 2.00985 13.1657C1.85982 13.0156 1.77554 12.8121 1.77554 12.6V11.8H0.975537C0.763364 11.8 0.559881 11.7157 0.409852 11.5657C0.259823 11.4156 0.175537 11.2121 0.175537 11C0.175537 10.7878 0.259823 10.5843 0.409852 10.4343C0.559881 10.2843 0.763364 10.2 0.975537 10.2H1.77554V9.39997C1.77554 9.1878 1.85982 8.98432 2.00985 8.83429C2.15988 8.68426 2.36336 8.59998 2.57554 8.59998ZM8.17554 0.599976C8.35209 0.599919 8.5237 0.658266 8.66363 0.765925C8.80356 0.873584 8.90394 1.02451 8.94914 1.19518L9.89234 4.75997L12.5755 6.30718C12.6971 6.37739 12.7981 6.47838 12.8683 6.59999C12.9385 6.7216 12.9755 6.85955 12.9755 6.99998C12.9755 7.1404 12.9385 7.27835 12.8683 7.39996C12.7981 7.52157 12.6971 7.62256 12.5755 7.69278L9.89234 9.24078L8.94834 12.8048C8.90306 12.9753 8.80269 13.126 8.66285 13.2336C8.52302 13.3411 8.35155 13.3994 8.17514 13.3994C7.99872 13.3994 7.82726 13.3411 7.68742 13.2336C7.54758 13.126 7.44722 12.9753 7.40194 12.8048L6.45874 9.23997L3.77554 7.69278C3.65393 7.62256 3.55295 7.52157 3.48274 7.39996C3.41253 7.27835 3.37557 7.1404 3.37557 6.99998C3.37557 6.85955 3.41253 6.7216 3.48274 6.59999C3.55295 6.47838 3.65393 6.37739 3.77554 6.30718L6.45874 4.75918L7.40274 1.19518C7.4479 1.02464 7.54816 0.873815 7.68793 0.766169C7.8277 0.658523 7.99912 0.600095 8.17554 0.599976Z" fill="white"/>
</svg>
