<svg width="26" height="26" viewBox="0 0 26 26" fill="none" xmlns="http://www.w3.org/2000/svg">
<path d="M22.3335 8.61335L15.2229 3.08268C14.5989 2.59722 13.8308 2.33365 13.0402 2.33365C12.2496 2.33365 11.4816 2.59722 10.8575 3.08268L3.74554 8.61335C3.31813 8.94572 2.97233 9.37138 2.73454 9.85781C2.49676 10.3442 2.37328 10.8786 2.37354 11.42V21.02C2.37354 21.7273 2.65449 22.4055 3.15458 22.9056C3.65468 23.4057 4.33296 23.6867 5.0402 23.6867H21.0402C21.7474 23.6867 22.4257 23.4057 22.9258 22.9056C23.4259 22.4055 23.7069 21.7273 23.7069 21.02V11.42C23.7069 10.3227 23.2002 9.28668 22.3335 8.61335Z" fill="#6851FF" stroke="#6851FF" stroke-width="3" stroke-linecap="round" stroke-linejoin="round"/>
</svg>
