<svg width="24" height="24" viewBox="0 0 24 24" fill="none" xmlns="http://www.w3.org/2000/svg">
    <g id="stars">
        <path fill-rule="evenodd" clip-rule="evenodd"
              d="M2.57554 0.599976C2.78771 0.599976 2.99119 0.684261 3.14122 0.83429C3.29125 0.984319 3.37554 1.1878 3.37554 1.39998V2.19998H4.17554C4.38771 2.19998 4.59119 2.28426 4.74122 2.43429C4.89125 2.58432 4.97554 2.7878 4.97554 2.99998C4.97554 3.21215 4.89125 3.41563 4.74122 3.56566C4.59119 3.71569 4.38771 3.79998 4.17554 3.79998H3.37554V4.59998C3.37554 4.81215 3.29125 5.01563 3.14122 5.16566C2.99119 5.31569 2.78771 5.39998 2.57554 5.39998C2.36336 5.39998 2.15988 5.31569 2.00985 5.16566C1.85982 5.01563 1.77554 4.81215 1.77554 4.59998V3.79998H0.975537C0.763364 3.79998 0.559881 3.71569 0.409852 3.56566C0.259823 3.41563 0.175537 3.21215 0.175537 2.99998C0.175537 2.7878 0.259823 2.58432 0.409852 2.43429C0.559881 2.28426 0.763364 2.19998 0.975537 2.19998H1.77554V1.39998C1.77554 1.1878 1.85982 0.984319 2.00985 0.83429C2.15988 0.684261 2.36336 0.599976 2.57554 0.599976ZM2.57554 8.59998C2.78771 8.59998 2.99119 8.68426 3.14122 8.83429C3.29125 8.98432 3.37554 9.1878 3.37554 9.39997V10.2H4.17554C4.38771 10.2 4.59119 10.2843 4.74122 10.4343C4.89125 10.5843 4.97554 10.7878 4.97554 11C4.97554 11.2121 4.89125 11.4156 4.74122 11.5657C4.59119 11.7157 4.38771 11.8 4.17554 11.8H3.37554V12.6C3.37554 12.8121 3.29125 13.0156 3.14122 13.1657C2.99119 13.3157 2.78771 13.4 2.57554 13.4C2.36336 13.4 2.15988 13.3157 2.00985 13.1657C1.85982 13.0156 1.77554 12.8121 1.77554 12.6V11.8H0.975537C0.763364 11.8 0.559881 11.7157 0.409852 11.5657C0.259823 11.4156 0.175537 11.2121 0.175537 11C0.175537 10.7878 0.259823 10.5843 0.409852 10.4343C0.559881 10.2843 0.763364 10.2 0.975537 10.2H1.77554V9.39997C1.77554 9.1878 1.85982 8.98432 2.00985 8.83429C2.15988 8.68426 2.36336 8.59998 2.57554 8.59998ZM8.17554 0.599976C8.35209 0.599919 8.5237 0.658266 8.66363 0.765925C8.80356 0.873584 8.90394 1.02451 8.94914 1.19518L9.89234 4.75997L12.5755 6.30718C12.6971 6.37739 12.7981 6.47838 12.8683 6.59999C12.9385 6.7216 12.9755 6.85955 12.9755 6.99998C12.9755 7.1404 12.9385 7.27835 12.8683 7.39996C12.7981 7.52157 12.6971 7.62256 12.5755 7.69278L9.89234 9.24078L8.94834 12.8048C8.90306 12.9753 8.80269 13.126 8.66285 13.2336C8.52302 13.3411 8.35155 13.3994 8.17514 13.3994C7.99872 13.3994 7.82726 13.3411 7.68742 13.2336C7.54758 13.126 7.44722 12.9753 7.40194 12.8048L6.45874 9.23997L3.77554 7.69278C3.65393 7.62256 3.55295 7.52157 3.48274 7.39996C3.41253 7.27835 3.37557 7.1404 3.37557 6.99998C3.37557 6.85955 3.41253 6.7216 3.48274 6.59999C3.55295 6.47838 3.65393 6.37739 3.77554 6.30718L6.45874 4.75918L7.40274 1.19518C7.4479 1.02464 7.54816 0.873815 7.68793 0.766169C7.8277 0.658523 7.99912 0.600095 8.17554 0.599976Z"/>

    </g>
    <g id="heart">
        <path d="M2.31804 2.31798C1.90017 2.73584 1.5687 3.23192 1.34255 3.77789C1.1164 4.32386 1 4.90903 1 5.49998C1 6.09093 1.1164 6.6761 1.34255 7.22207C1.5687 7.76803 1.90017 8.26411 2.31804 8.68198L10 16.364L17.682 8.68198C18.526 7.83806 19.0001 6.69346 19.0001 5.49998C19.0001 4.3065 18.526 3.1619 17.682 2.31798C16.8381 1.47406 15.6935 0.99995 14.5 0.99995C13.3066 0.99995 12.162 1.47406 11.318 2.31798L10 3.63598L8.68204 2.31798C8.26417 1.90011 7.7681 1.56864 7.22213 1.34249C6.67616 1.11634 6.09099 0.999939 5.50004 0.999939C4.90909 0.999939 4.32392 1.11634 3.77795 1.34249C3.23198 1.56864 2.7359 1.90011 2.31804 2.31798V2.31798Z"
              stroke-width="2" stroke-linecap="round" stroke-linejoin="round"/>

    </g>
    <g id="house">
        <path d="M22.3335 8.61335L15.2229 3.08268C14.5989 2.59722 13.8308 2.33365 13.0402 2.33365C12.2496 2.33365 11.4816 2.59722 10.8575 3.08268L3.74554 8.61335C3.31813 8.94572 2.97233 9.37138 2.73454 9.85781C2.49676 10.3442 2.37328 10.8786 2.37354 11.42V21.02C2.37354 21.7273 2.65449 22.4055 3.15458 22.9056C3.65468 23.4057 4.33296 23.6867 5.0402 23.6867H21.0402C21.7474 23.6867 22.4257 23.4057 22.9258 22.9056C23.4259 22.4055 23.7069 21.7273 23.7069 21.02V11.42C23.7069 10.3227 23.2002 9.28668 22.3335 8.61335Z"
              stroke-width="3" stroke-linecap="round" stroke-linejoin="round"/>

    </g>
    <g id="logo-bottom-element">
        <path d="M12.3332 2C9.38651 3.77733 4.6105 3.77733 1.6665 2" stroke-width="3"
              stroke-linecap="round" stroke-linejoin="round"/>

    </g>
    <g id="facebook">
        <path d="M9.11986 3.32003H10.9999V0.14003C10.0896 0.045377 9.17502 -0.00135428 8.25986 2.98641e-05C5.53986 2.98641e-05 3.67986 1.66003 3.67986 4.70003V7.32003H0.609863V10.88H3.67986V20H7.35986V10.88H10.4199L10.8799 7.32003H7.35986V5.05003C7.35986 4.00003 7.63986 3.32003 9.11986 3.32003Z"
        />

    </g>
    <g id="instagram">
        <path d="M15.34 3.46C15.1027 3.46 14.8707 3.53038 14.6733 3.66224C14.476 3.79409 14.3222 3.98151 14.2313 4.20078C14.1405 4.42005 14.1168 4.66133 14.1631 4.89411C14.2094 5.12689 14.3236 5.34071 14.4915 5.50853C14.6593 5.67635 14.8731 5.79064 15.1059 5.83694C15.3387 5.88324 15.5799 5.85948 15.7992 5.76866C16.0185 5.67783 16.2059 5.52402 16.3378 5.32668C16.4696 5.12935 16.54 4.89734 16.54 4.66C16.54 4.34174 16.4136 4.03652 16.1885 3.81147C15.9635 3.58643 15.6583 3.46 15.34 3.46ZM19.94 5.88C19.9206 5.0503 19.7652 4.2294 19.48 3.45C19.2257 2.78313 18.83 2.17928 18.32 1.68C17.8248 1.16743 17.2196 0.774176 16.55 0.53C15.7727 0.236161 14.9508 0.07721 14.12 0.0599999C13.06 -5.58794e-08 12.72 0 10 0C7.28 0 6.94 -5.58794e-08 5.88 0.0599999C5.04915 0.07721 4.22734 0.236161 3.45 0.53C2.78168 0.776649 2.17693 1.16956 1.68 1.68C1.16743 2.17518 0.774176 2.78044 0.53 3.45C0.236161 4.22734 0.07721 5.04915 0.0599999 5.88C-5.58794e-08 6.94 0 7.28 0 10C0 12.72 -5.58794e-08 13.06 0.0599999 14.12C0.07721 14.9508 0.236161 15.7727 0.53 16.55C0.774176 17.2196 1.16743 17.8248 1.68 18.32C2.17693 18.8304 2.78168 19.2234 3.45 19.47C4.22734 19.7638 5.04915 19.9228 5.88 19.94C6.94 20 7.28 20 10 20C12.72 20 13.06 20 14.12 19.94C14.9508 19.9228 15.7727 19.7638 16.55 19.47C17.2196 19.2258 17.8248 18.8326 18.32 18.32C18.8322 17.8226 19.2283 17.2182 19.48 16.55C19.7652 15.7706 19.9206 14.9497 19.94 14.12C19.94 13.06 20 12.72 20 10C20 7.28 20 6.94 19.94 5.88ZM18.14 14C18.1327 14.6348 18.0178 15.2637 17.8 15.86C17.6403 16.2952 17.3839 16.6884 17.05 17.01C16.7256 17.3405 16.3332 17.5964 15.9 17.76C15.3037 17.9778 14.6748 18.0927 14.04 18.1C13.04 18.15 12.67 18.16 10.04 18.16C7.41 18.16 7.04 18.16 6.04 18.1C5.38089 18.1123 4.72459 18.0109 4.1 17.8C3.68578 17.6281 3.31136 17.3728 3 17.05C2.66809 16.7287 2.41484 16.3352 2.26 15.9C2.01586 15.2952 1.88044 14.6519 1.86 14C1.86 13 1.8 12.63 1.8 10C1.8 7.37 1.8 7 1.86 6C1.86448 5.35106 1.98295 4.70795 2.21 4.1C2.38605 3.67791 2.65627 3.30166 3 3C3.30381 2.65617 3.67929 2.3831 4.1 2.2C4.70955 1.98004 5.352 1.86508 6 1.86C7 1.86 7.37 1.8 10 1.8C12.63 1.8 13 1.8 14 1.86C14.6348 1.86728 15.2637 1.98225 15.86 2.2C16.3144 2.36865 16.7223 2.64285 17.05 3C17.3777 3.30718 17.6338 3.68273 17.8 4.1C18.0223 4.70893 18.1373 5.35178 18.14 6C18.19 7 18.2 7.37 18.2 10C18.2 12.63 18.19 13 18.14 14ZM10 4.87C8.98581 4.87198 7.99496 5.17453 7.15265 5.73942C6.31035 6.30431 5.65438 7.1062 5.26763 8.04375C4.88089 8.98131 4.78072 10.0125 4.97979 11.0069C5.17886 12.0014 5.66824 12.9145 6.38608 13.631C7.10392 14.3474 8.01801 14.835 9.01286 15.0321C10.0077 15.2293 11.0387 15.1271 11.9755 14.7385C12.9123 14.35 13.7129 13.6924 14.2761 12.849C14.8394 12.0056 15.14 11.0142 15.14 10C15.1413 9.3251 15.0092 8.65661 14.7512 8.03296C14.4933 7.40931 14.1146 6.84281 13.6369 6.36605C13.1592 5.88929 12.5919 5.51168 11.9678 5.25493C11.3436 4.99818 10.6749 4.86736 10 4.87ZM10 13.33C9.34139 13.33 8.69757 13.1347 8.14995 12.7688C7.60234 12.4029 7.17552 11.8828 6.92348 11.2743C6.67144 10.6659 6.6055 9.99631 6.73398 9.35035C6.86247 8.70439 7.17963 8.11104 7.64533 7.64533C8.11104 7.17963 8.70439 6.86247 9.35035 6.73398C9.99631 6.6055 10.6659 6.67144 11.2743 6.92348C11.8828 7.17552 12.4029 7.60234 12.7688 8.14995C13.1347 8.69757 13.33 9.34139 13.33 10C13.33 10.4373 13.2439 10.8703 13.0765 11.2743C12.9092 11.6784 12.6639 12.0454 12.3547 12.3547C12.0454 12.6639 11.6784 12.9092 11.2743 13.0765C10.8703 13.2439 10.4373 13.33 10 13.33Z"
        />

    </g>
    <g id="twitter">
        <path d="M20 2.80021C19.2483 3.1263 18.4534 3.34187 17.64 3.44021C18.4982 2.92753 19.1413 2.12099 19.45 1.17021C18.6436 1.65027 17.7608 1.98851 16.84 2.17021C16.2245 1.50278 15.405 1.05851 14.5098 0.907061C13.6147 0.755616 12.6945 0.905568 11.8938 1.3334C11.093 1.76123 10.4569 2.44274 10.0852 3.27105C9.71355 4.09935 9.62729 5.0276 9.84 5.91021C8.20943 5.82774 6.61444 5.40316 5.15865 4.66407C3.70287 3.92498 2.41885 2.8879 1.39 1.62021C1.02914 2.25038 0.839519 2.96403 0.84 3.69021C0.83872 4.36459 1.00422 5.02883 1.32176 5.62377C1.63929 6.21872 2.09902 6.72592 2.66 7.10021C2.00798 7.08247 1.36989 6.90751 0.8 6.59021V6.64021C0.804887 7.5851 1.13599 8.4993 1.73731 9.22818C2.33864 9.95705 3.17326 10.4559 4.1 10.6402C3.74326 10.7488 3.37287 10.806 3 10.8102C2.74189 10.8072 2.48442 10.7838 2.23 10.7402C2.49391 11.553 3.00462 12.2634 3.69107 12.7724C4.37753 13.2814 5.20558 13.5638 6.06 13.5802C4.6172 14.7155 2.83588 15.3351 1 15.3402C0.665735 15.3413 0.331736 15.3213 0 15.2802C1.87443 16.4905 4.05881 17.1329 6.29 17.1302C7.82969 17.1462 9.35714 16.8552 10.7831 16.2743C12.2091 15.6934 13.505 14.8341 14.5952 13.7467C15.6854 12.6593 16.548 11.3656 17.1326 9.94112C17.7172 8.51663 18.012 6.98994 18 5.45021C18 5.28021 18 5.10021 18 4.92021C18.7847 4.33502 19.4615 3.61763 20 2.80021Z"
        />

    </g>
    <g id="linkedin">
        <path d="M18.4701 0.000139831H1.53006C1.33964 -0.00250479 1.15056 0.0323873 0.973624 0.102824C0.796689 0.17326 0.635362 0.27786 0.498856 0.410652C0.36235 0.543443 0.25334 0.701824 0.178051 0.876749C0.102761 1.05167 0.062667 1.23972 0.0600586 1.43014V18.5701C0.062667 18.7606 0.102761 18.9486 0.178051 19.1235C0.25334 19.2985 0.36235 19.4568 0.498856 19.5896C0.635362 19.7224 0.796689 19.827 0.973624 19.8975C1.15056 19.9679 1.33964 20.0028 1.53006 20.0001H18.4701C18.6605 20.0028 18.8496 19.9679 19.0265 19.8975C19.2034 19.827 19.3648 19.7224 19.5013 19.5896C19.6378 19.4568 19.7468 19.2985 19.8221 19.1235C19.8974 18.9486 19.9375 18.7606 19.9401 18.5701V1.43014C19.9375 1.23972 19.8974 1.05167 19.8221 0.876749C19.7468 0.701824 19.6378 0.543443 19.5013 0.410652C19.3648 0.27786 19.2034 0.17326 19.0265 0.102824C18.8496 0.0323873 18.6605 -0.00250479 18.4701 0.000139831ZM6.09006 16.7401H3.09006V7.74014H6.09006V16.7401ZM4.59006 6.48014C4.17632 6.48014 3.77953 6.31578 3.48697 6.02323C3.19442 5.73067 3.03006 5.33388 3.03006 4.92014C3.03006 4.5064 3.19442 4.10961 3.48697 3.81705C3.77953 3.5245 4.17632 3.36014 4.59006 3.36014C4.80975 3.33522 5.03224 3.35699 5.24293 3.42402C5.45363 3.49105 5.6478 3.60183 5.81272 3.7491C5.97763 3.89637 6.10958 4.07682 6.19993 4.27862C6.29028 4.48043 6.33698 4.69904 6.33698 4.92014C6.33698 5.14124 6.29028 5.35985 6.19993 5.56166C6.10958 5.76346 5.97763 5.94391 5.81272 6.09118C5.6478 6.23845 5.45363 6.34923 5.24293 6.41626C5.03224 6.48329 4.80975 6.50505 4.59006 6.48014ZM16.9101 16.7401H13.9101V11.9101C13.9101 10.7001 13.4801 9.91014 12.3901 9.91014C12.0527 9.91261 11.7242 10.0184 11.4489 10.2133C11.1735 10.4082 10.9645 10.6828 10.8501 11.0001C10.7718 11.2352 10.7379 11.4827 10.7501 11.7301V16.7301H7.75006C7.75006 16.7301 7.75006 8.55014 7.75006 7.73014H10.7501V9.00014C11.0226 8.52725 11.419 8.13766 11.8965 7.87334C12.374 7.60902 12.9146 7.47999 13.4601 7.50014C15.4601 7.50014 16.9101 8.79014 16.9101 11.5601V16.7401Z"
        />

    </g>
</svg>